# xmcd
#
# Track frame offsets: 
#        165
#        21067
#        34926
#        65503
#        78160
#        96955
#        98263
#        121278
#        124489
#        141412
#        155644
#        173728
#        188378
#        204646
#
# Disc length: 2879 seconds
#
# Revision: 1
# Processed by: cddbd v1.5.2PL0 Copyright (c) Steve Scherf et al.
# Submitted via: ExactAudioCopyFreeDBPlugin 1.0
#
DISCID=b70b3d0e
DTITLE=Magic Red and The Voodoo Tribe - The First Temptation
DYEAR=2000
DGENRE=Blues
TTITLE0=Sister Mary's Boogie
TTITLE1=Low Rent Blues
TTITLE2=Don't Mean Nothin'
TTITLE3=Tried To Keep You Satisfied
TTITLE4=The Devil Lives In My Amplifier
TTITLE5=Working Girls
TTITLE6=Love Me Tonight
TTITLE7=Chanting Children
TTITLE8=On And On
TTITLE9=Bad Attitude
TTITLE10=Guitar Man
TTITLE11=Looking Down On The World
TTITLE12=For You Michael
TTITLE13=For Those Before Me
EXTD=
EXTT0=
EXTT1=
EXTT2=
EXTT3=
EXTT4=
EXTT5=
EXTT6=
EXTT7=
EXTT8=
EXTT9=
EXTT10=
EXTT11=
EXTT12=
EXTT13=
PLAYORDER=
